<svg width="40" height="40" viewBox="0 0 40 40" fill="none" xmlns="http://www.w3.org/2000/svg">
<path d="M6.14697 8.125L8.66854 36.4041L19.9829 39.5447L31.3288 36.4L33.8532 8.125H6.14697ZM27.7751 23.9025L27.0407 30.7437L27.0435 31.3297L20.0001 33.2969L19.9945 33.3019L12.8948 31.3566L12.4145 25.9375H15.896L16.1429 28.6769L20.0013 29.7066L20.0001 29.7112V29.7012L23.8732 28.6091L24.282 24.0625H16.186L16.1167 23.3266L15.9585 21.5619L15.8757 20.625H24.5901L24.907 17.1875H11.6342L11.5645 16.3784L11.4063 14.4941L11.3235 13.4375H28.6976L28.6142 14.4794L27.7751 23.9025ZM27.8126 4.49187L25.5785 1.875H27.8126V0.3125H22.8126V1.67594L25.4345 4.0625H22.8126V5.625H27.8126V4.49187ZM21.8751 4.49187L19.7479 1.875H21.8751V0.3125H17.1876V1.67594L19.6042 4.0625H17.1876V5.625H21.8751V4.49187ZM16.2501 4.0625H13.7501V1.875H16.2501V0.3125H11.8751V5.625H16.2501V4.0625Z" fill="black"/>
</svg>
