<svg width="40" height="40" viewBox="0 0 40 40" fill="none" xmlns="http://www.w3.org/2000/svg">
<path d="M27.8854 1.83001H25.5779L27.9776 4.43407V5.67376H23.0351V4.2222H25.4345L23.0351 1.61813V0.377197H27.8854V1.83001ZM22.0551 1.83001H19.7476L22.1473 4.43407V5.67376H17.2045V4.2222H19.6042L17.2045 1.61813V0.377197H22.0551V1.83001ZM16.282 1.88938H13.792V4.16157H16.282V5.67376H12.022V0.377197H16.282V1.88938Z" fill="#131313"/>
<path d="M8.62895 36.4706L6.09863 8.09155H33.9008L31.3683 36.4659L19.9827 39.6228L8.62895 36.4706Z" fill="#1572B6"/>
<path d="M20.0005 37.2099L29.2002 34.6593L31.3646 10.4121H20.0005V37.2099Z" fill="#33A9DC"/>
<path d="M20 20.6939H24.6056L24.9241 17.1298H20V13.6492H28.7278L28.6444 14.5829L27.7891 24.1742H20V20.6939Z" fill="white"/>
<path d="M20.0208 29.7332L20.0055 29.7376L16.1293 28.6907L15.8811 25.9148H12.3877L12.8755 31.3798L20.0049 33.3589L20.0211 33.3542L20.0208 29.7332Z" fill="#EBEBEB"/>
<path d="M24.31 24.0269L23.8907 28.6881L20.0088 29.7359V33.3572L27.1441 31.3797L27.1966 30.7915L27.8022 24.0269H24.31Z" fill="white"/>
<path d="M20.012 13.6492V17.1295H11.6048L11.5348 16.3473L11.3764 14.5829L11.293 13.6492H20.012ZM19.9998 20.6942V24.1748H16.1727L16.103 23.3926L15.9442 21.6279L15.8608 20.6942H19.9998Z" fill="#EBEBEB"/>
</svg>
