<svg width="40" height="40" viewBox="0 0 40 40" fill="none" xmlns="http://www.w3.org/2000/svg">
<path d="M21.25 6.25V13.75H25C25.9946 13.75 26.9484 13.3549 27.6517 12.6516C28.3549 11.9484 28.75 10.9946 28.75 10C28.75 9.00544 28.3549 8.05161 27.6517 7.34835C26.9484 6.64509 25.9946 6.25 25 6.25H21.25ZM28.75 15C29.6461 15.6728 30.3453 16.5735 30.775 17.6083C31.298 18.874 31.3909 20.2764 31.0395 21.6C30.6881 22.9236 29.9118 24.0952 28.8299 24.9347C27.748 25.7743 26.4204 26.2354 25.051 26.2472C23.6816 26.259 22.3462 25.8208 21.25 25V30C21.25 31.0654 20.9777 32.113 20.4589 33.0435C19.9401 33.974 19.1921 34.7565 18.2858 35.3166C17.3796 35.8767 16.3452 36.1958 15.2809 36.2437C14.2167 36.2916 13.1578 36.0666 12.2049 35.5902C11.252 35.1137 10.4368 34.4016 9.8365 33.5215C9.23624 32.6413 8.87093 31.6223 8.77526 30.5613C8.67958 29.5002 8.85672 28.4323 9.28985 27.459C9.72298 26.4857 10.3977 25.6392 11.25 25C10.4747 24.4169 9.84541 23.6619 9.41159 22.7942C8.97776 21.9266 8.75129 20.9701 8.75 20C8.75 19.0297 8.97591 18.0728 9.40983 17.2049C9.84376 16.3371 10.4738 15.5822 11.25 15C10.2006 14.2129 9.42542 13.1156 9.03429 11.8635C8.64317 10.6114 8.65591 9.26803 9.07073 8.02358C9.48555 6.77913 10.2814 5.69674 11.3456 4.92974C12.4097 4.16273 13.6882 3.75 15 3.75H25C26.3118 3.75 27.5903 4.16273 28.6544 4.92974C29.7186 5.69674 30.5145 6.77913 30.9293 8.02358C31.3441 9.26803 31.3568 10.6114 30.9657 11.8635C30.5746 13.1156 29.7994 14.2129 28.75 15ZM18.75 16.25H15C14.0054 16.25 13.0516 16.6451 12.3484 17.3483C11.6451 18.0516 11.25 19.0054 11.25 20C11.25 20.9946 11.6451 21.9484 12.3484 22.6516C13.0516 23.3549 14.0054 23.75 15 23.75H18.75V16.25Z" fill="black"/>
</svg>
