<svg width="40" height="40" viewBox="0 0 40 40" fill="none" xmlns="http://www.w3.org/2000/svg">
<path d="M13.9375 2H19.875V13.875H13.9375C12.3628 13.875 10.8526 13.2494 9.73905 12.1359C8.62556 11.0224 8 9.51222 8 7.9375C8 6.36278 8.62556 4.85255 9.73905 3.73905C10.8526 2.62556 12.3628 2 13.9375 2Z" fill="#F4511E"/>
<path d="M25.8125 13.875H19.875V2H25.8125C27.3872 2 28.8974 2.62556 30.0109 3.73905C31.1244 4.85255 31.75 6.36278 31.75 7.9375C31.75 9.51222 31.1244 11.0224 30.0109 12.1359C28.8974 13.2494 27.3872 13.875 25.8125 13.875Z" fill="#FF8A65"/>
<path d="M19.875 19.8125C19.875 23.0917 22.5333 25.75 25.8125 25.75C29.0917 25.75 31.75 23.0917 31.75 19.8125C31.75 16.5333 29.0917 13.875 25.8125 13.875C22.5333 13.875 19.875 16.5333 19.875 19.8125Z" fill="#29B6F6"/>
<path d="M13.9375 13.875H19.875V25.75H13.9375C12.3628 25.75 10.8526 25.1244 9.73905 24.0109C8.62556 22.8974 8 21.3872 8 19.8125C8 18.2378 8.62556 16.7276 9.73905 15.6141C10.8526 14.5006 12.3628 13.875 13.9375 13.875Z" fill="#7C4DFF"/>
<path d="M13.9375 25.75H19.875V31.6875C19.875 33.2622 19.2494 34.7724 18.1359 35.8859C17.0224 36.9994 15.5122 37.625 13.9375 37.625C12.3628 37.625 10.8526 36.9994 9.73905 35.8859C8.62556 34.7724 8 33.2622 8 31.6875C8 30.1128 8.62556 28.6026 9.73905 27.4891C10.8526 26.3756 12.3628 25.75 13.9375 25.75Z" fill="#00E676"/>
</svg>
