<svg width="16" height="16" viewBox="0 0 16 16" fill="none" xmlns="http://www.w3.org/2000/svg">
<g clip-path="url(#clip0_222_613)">
<path d="M7.49321 16C7.27479 15.9992 7.05915 15.951 6.86121 15.8587C6.53788 15.7147 6.27821 15.4577 6.13091 15.1359C5.98362 14.814 5.95884 14.4495 6.06121 14.1107L7.10187 10.6667H4.64987C4.33748 10.6671 4.02933 10.5943 3.75014 10.4541C3.47095 10.3139 3.22848 10.1103 3.04215 9.85959C2.85582 9.60884 2.73082 9.31793 2.67717 9.01017C2.62353 8.70242 2.64271 8.38637 2.73321 8.08737L4.74921 1.4207C4.87209 1.00835 5.1254 0.646983 5.47111 0.390827C5.81682 0.13467 6.23628 -0.00245442 6.66654 3.32596e-05H9.12854C9.40838 0.000267355 9.68399 0.0682506 9.93184 0.198173C10.1797 0.328096 10.3924 0.516094 10.5518 0.746103C10.7112 0.976111 10.8125 1.24129 10.8471 1.51898C10.8817 1.79666 10.8486 2.0786 10.7505 2.3407L9.62854 5.33337H11.3332C11.6966 5.33334 12.0531 5.43231 12.3644 5.61964C12.6758 5.80697 12.9302 6.07559 13.1004 6.39664C13.2706 6.71769 13.3501 7.07904 13.3304 7.44187C13.3107 7.80471 13.1925 8.15531 12.9885 8.45603L8.72187 15.3227C8.58998 15.5293 8.40842 15.6995 8.19378 15.8178C7.97915 15.9361 7.73829 15.9988 7.49321 16ZM6.66654 1.33337C6.52337 1.33323 6.38396 1.37918 6.26894 1.46443C6.15392 1.54967 6.06939 1.66968 6.02787 1.8067L4.01187 8.47337C3.98169 8.57298 3.97525 8.67827 3.99306 8.78082C4.01088 8.88336 4.05246 8.98031 4.11447 9.06391C4.17649 9.1475 4.25721 9.21541 4.35018 9.2622C4.44315 9.30899 4.54579 9.33336 4.64987 9.33337H7.99987C8.10396 9.33337 8.20659 9.35774 8.29956 9.40454C8.39254 9.45133 8.47326 9.51924 8.53527 9.60283C8.59729 9.68642 8.63887 9.78337 8.65668 9.88592C8.6745 9.98846 8.66806 10.0938 8.63787 10.1934L7.33987 14.488C7.33387 14.5038 7.33122 14.5207 7.33208 14.5376C7.33295 14.5545 7.33731 14.571 7.34489 14.5861C7.35248 14.6012 7.36312 14.6146 7.37614 14.6253C7.38916 14.6361 7.40428 14.6441 7.42054 14.6487C7.43528 14.6581 7.45183 14.6644 7.46913 14.6671C7.48644 14.6697 7.50411 14.6687 7.521 14.6641C7.5379 14.6596 7.55364 14.6515 7.56723 14.6404C7.58081 14.6294 7.59193 14.6156 7.59987 14.6L11.8665 7.73337C11.9412 7.63217 11.9856 7.51193 11.9948 7.38654C12.004 7.26115 11.9776 7.13571 11.9185 7.0247C11.8638 6.91657 11.7801 6.82581 11.6767 6.76258C11.5733 6.69935 11.4544 6.66615 11.3332 6.6667H8.66654C8.55879 6.66677 8.45263 6.64072 8.35715 6.59078C8.26167 6.54084 8.17972 6.46851 8.11832 6.37997C8.05691 6.29143 8.01788 6.18933 8.00457 6.08241C7.99125 5.97548 8.00405 5.86693 8.04187 5.76603L9.50187 1.8727C9.5243 1.81234 9.53183 1.74745 9.52381 1.68356C9.51579 1.61966 9.49247 1.55865 9.45582 1.5057C9.41917 1.45275 9.37027 1.40944 9.31329 1.37943C9.25632 1.34943 9.19293 1.33363 9.12854 1.33337H6.66654Z" fill="black"/>
</g>
<defs>
<clipPath id="clip0_222_613">
<rect width="16" height="16" fill="white"/>
</clipPath>
</defs>
</svg>
