<svg width="16" height="16" viewBox="0 0 16 16" fill="none" xmlns="http://www.w3.org/2000/svg">
<g clip-path="url(#clip0_222_617)">
<path d="M8 8C8.79113 8 9.56448 7.76541 10.2223 7.32588C10.8801 6.88635 11.3928 6.26164 11.6955 5.53074C11.9983 4.79983 12.0775 3.99556 11.9231 3.21964C11.7688 2.44372 11.3878 1.73098 10.8284 1.17157C10.269 0.612165 9.55629 0.231202 8.78036 0.0768607C8.00444 -0.0774802 7.20017 0.00173314 6.46927 0.304484C5.73836 0.607234 5.11365 1.11992 4.67412 1.77772C4.2346 2.43552 4 3.20888 4 4C4.00106 5.06054 4.42283 6.07734 5.17274 6.82726C5.92266 7.57718 6.93946 7.99894 8 8ZM8 1.33334C8.52742 1.33334 9.04299 1.48973 9.48152 1.78275C9.92005 2.07577 10.2618 2.49224 10.4637 2.97951C10.6655 3.46678 10.7183 4.00296 10.6154 4.52024C10.5125 5.03753 10.2586 5.51268 9.88562 5.88562C9.51268 6.25856 9.03752 6.51254 8.52024 6.61543C8.00296 6.71832 7.46678 6.66551 6.97951 6.46368C6.49224 6.26185 6.07577 5.92005 5.78275 5.48152C5.48973 5.04299 5.33333 4.52742 5.33333 4C5.33333 3.29276 5.61428 2.61448 6.11438 2.11438C6.61448 1.61429 7.29276 1.33334 8 1.33334Z" fill="black"/>
<path d="M8 9.3335C6.40924 9.33526 4.88414 9.96797 3.75931 11.0928C2.63447 12.2176 2.00176 13.7427 2 15.3335C2 15.5103 2.07024 15.6799 2.19526 15.8049C2.32029 15.9299 2.48986 16.0002 2.66667 16.0002C2.84348 16.0002 3.01305 15.9299 3.13807 15.8049C3.2631 15.6799 3.33333 15.5103 3.33333 15.3335C3.33333 14.0958 3.825 12.9088 4.70017 12.0337C5.57534 11.1585 6.76232 10.6668 8 10.6668C9.23768 10.6668 10.4247 11.1585 11.2998 12.0337C12.175 12.9088 12.6667 14.0958 12.6667 15.3335C12.6667 15.5103 12.7369 15.6799 12.8619 15.8049C12.987 15.9299 13.1565 16.0002 13.3333 16.0002C13.5101 16.0002 13.6797 15.9299 13.8047 15.8049C13.9298 15.6799 14 15.5103 14 15.3335C13.9982 13.7427 13.3655 12.2176 12.2407 11.0928C11.1159 9.96797 9.59076 9.33526 8 9.3335Z" fill="black"/>
</g>
<defs>
<clipPath id="clip0_222_617">
<rect width="16" height="16" fill="white"/>
</clipPath>
</defs>
</svg>
