<svg width="16" height="16" viewBox="0 0 16 16" fill="none" xmlns="http://www.w3.org/2000/svg">
<g clip-path="url(#clip0_222_622)">
<path d="M12.6667 0H3.33333C2.4496 0.00105857 1.60237 0.352588 0.97748 0.97748C0.352588 1.60237 0.00105857 2.4496 0 3.33333L0 12.6667C0.00105857 13.5504 0.352588 14.3976 0.97748 15.0225C1.60237 15.6474 2.4496 15.9989 3.33333 16H12.6667C13.5504 15.9989 14.3976 15.6474 15.0225 15.0225C15.6474 14.3976 15.9989 13.5504 16 12.6667V3.33333C15.9989 2.4496 15.6474 1.60237 15.0225 0.97748C14.3976 0.352588 13.5504 0.00105857 12.6667 0ZM14.6667 12.6667C14.6667 13.1971 14.456 13.7058 14.0809 14.0809C13.7058 14.456 13.1971 14.6667 12.6667 14.6667H3.33333C2.8029 14.6667 2.29419 14.456 1.91912 14.0809C1.54405 13.7058 1.33333 13.1971 1.33333 12.6667V3.33333C1.33333 2.8029 1.54405 2.29419 1.91912 1.91912C2.29419 1.54405 2.8029 1.33333 3.33333 1.33333H12.6667C13.1971 1.33333 13.7058 1.54405 14.0809 1.91912C14.456 2.29419 14.6667 2.8029 14.6667 3.33333V12.6667ZM12 6C12 6.17681 11.9298 6.34638 11.8047 6.4714C11.6797 6.59643 11.5101 6.66667 11.3333 6.66667C11.1565 6.66667 10.987 6.59643 10.8619 6.4714C10.7369 6.34638 10.6667 6.17681 10.6667 6C10.6667 5.82319 10.5964 5.65362 10.4714 5.5286C10.3464 5.40357 10.1768 5.33333 10 5.33333H8.66667V10.6667H9.33333C9.51014 10.6667 9.67971 10.7369 9.80474 10.8619C9.92976 10.987 10 11.1565 10 11.3333C10 11.5101 9.92976 11.6797 9.80474 11.8047C9.67971 11.9298 9.51014 12 9.33333 12H6.66667C6.48986 12 6.32029 11.9298 6.19526 11.8047C6.07024 11.6797 6 11.5101 6 11.3333C6 11.1565 6.07024 10.987 6.19526 10.8619C6.32029 10.7369 6.48986 10.6667 6.66667 10.6667H7.33333V5.33333H6C5.82319 5.33333 5.65362 5.40357 5.5286 5.5286C5.40357 5.65362 5.33333 5.82319 5.33333 6C5.33333 6.17681 5.2631 6.34638 5.13807 6.4714C5.01305 6.59643 4.84348 6.66667 4.66667 6.66667C4.48986 6.66667 4.32029 6.59643 4.19526 6.4714C4.07024 6.34638 4 6.17681 4 6C4 5.46957 4.21071 4.96086 4.58579 4.58579C4.96086 4.21071 5.46957 4 6 4H10C10.5304 4 11.0391 4.21071 11.4142 4.58579C11.7893 4.96086 12 5.46957 12 6Z" fill="black"/>
</g>
<defs>
<clipPath id="clip0_222_622">
<rect width="16" height="16" fill="white"/>
</clipPath>
</defs>
</svg>
