<svg width="40" height="40" viewBox="0 0 40 40" fill="none" xmlns="http://www.w3.org/2000/svg">
<g clip-path="url(#clip0_211_270)">
<path fill-rule="evenodd" clip-rule="evenodd" d="M19.9999 0.472412C12.6583 0.472412 6.70459 6.4246 6.70459 13.7677C6.70459 19.6418 10.514 24.6255 15.7968 26.3834C16.4612 26.5065 16.7052 26.0949 16.7052 25.7437C16.7052 25.4268 16.6927 24.3793 16.6871 23.2687C12.988 24.0727 12.2077 21.6999 12.2077 21.6999C11.603 20.163 10.7315 19.7543 10.7315 19.7543C9.52521 18.9293 10.8221 18.9462 10.8221 18.9462C12.1574 19.0399 12.8605 20.3165 12.8605 20.3165C14.0462 22.349 15.9708 21.7612 16.7293 21.4215C16.849 20.5621 17.1933 19.9752 17.5737 19.6433C14.6205 19.3074 11.5162 18.1671 11.5162 13.0727C11.5162 11.6212 12.0355 10.4352 12.8862 9.50397C12.748 9.16897 12.293 7.81647 13.0149 5.98522C13.0149 5.98522 14.1312 5.62835 16.6712 7.34866C17.7321 7.05398 18.8696 6.90616 19.9993 6.90116C21.1293 6.90647 22.2674 7.05429 23.3299 7.34866C25.8674 5.62866 26.9824 5.98554 26.9824 5.98554C27.7062 7.81679 27.2512 9.16897 27.113 9.50429C27.9655 10.4349 28.4812 11.6212 28.4812 13.073C28.4812 18.1793 25.3708 19.3037 22.4102 19.6324C22.8871 20.0449 23.3121 20.8543 23.3121 22.0949C23.3121 23.8737 23.2971 25.3052 23.2971 25.743C23.2971 26.0962 23.5365 26.5112 24.2102 26.3805C29.4902 24.6205 33.2946 19.6387 33.2946 13.7665C33.2952 6.42491 27.3427 0.472412 19.9999 0.472412Z" fill="black"/>
<path d="M11.7407 19.5612C11.711 19.6275 11.6069 19.6472 11.5125 19.6019C11.4157 19.5581 11.3619 19.4684 11.3932 19.4019C11.4213 19.3344 11.5257 19.3153 11.6222 19.3606C11.7191 19.4044 11.7738 19.495 11.7407 19.5612ZM12.2791 20.1625C12.2157 20.2209 12.0916 20.1937 12.0072 20.1006C11.9204 20.0078 11.9041 19.8837 11.9685 19.8244C12.0335 19.7656 12.1538 19.7931 12.2404 19.8859C12.3279 19.9797 12.345 20.1025 12.2788 20.1622L12.2791 20.1625ZM12.8032 20.9275C12.7219 20.9844 12.5885 20.9312 12.5063 20.8128C12.4244 20.695 12.4244 20.5534 12.5079 20.4962C12.5904 20.4394 12.7216 20.4906 12.8047 20.6078C12.8866 20.7281 12.8866 20.87 12.8032 20.9275ZM13.5213 21.6675C13.4485 21.7478 13.2932 21.7262 13.1797 21.6165C13.0635 21.5094 13.0313 21.3572 13.1041 21.2769C13.1782 21.1965 13.3341 21.219 13.4485 21.3278C13.5641 21.4347 13.5991 21.5875 13.5213 21.6675ZM14.5125 22.0969C14.48 22.2012 14.3307 22.2484 14.18 22.2044C14.0294 22.1587 13.9313 22.0369 13.9613 21.9319C13.9925 21.8269 14.1432 21.7778 14.2947 21.825C14.4447 21.87 14.5435 21.9906 14.5125 22.0969ZM15.6 22.1765C15.6041 22.2859 15.4763 22.3772 15.3182 22.379C15.1594 22.3828 15.0307 22.294 15.0288 22.1859C15.0288 22.0753 15.1538 21.9853 15.3125 21.9828C15.4707 21.9797 15.6 22.0678 15.6 22.1765ZM16.6125 22.0044C16.6313 22.1112 16.5219 22.2212 16.3647 22.2503C16.2104 22.279 16.0679 22.2128 16.0479 22.1065C16.0291 21.9972 16.1407 21.8878 16.2947 21.859C16.4519 21.8315 16.5925 21.8956 16.6125 22.0044Z" fill="black"/>
<path d="M7.76723 33.8443H4.42348C4.38204 33.8443 4.34229 33.8608 4.31299 33.8901C4.28369 33.9194 4.26723 33.9591 4.26723 34.0005V35.6355C4.26723 35.677 4.28369 35.7167 4.31299 35.746C4.34229 35.7753 4.38204 35.7918 4.42348 35.7918H5.72754V37.823C5.72754 37.823 5.43473 37.923 4.62441 37.923C3.66941 37.923 2.33473 37.5743 2.33473 34.6393C2.33473 31.704 3.72473 31.3174 5.02973 31.3174C6.1591 31.3174 6.64535 31.5162 6.95535 31.6121C7.05223 31.6415 7.14285 31.5446 7.14285 31.4584L7.51566 29.8787C7.51621 29.855 7.51105 29.8316 7.5006 29.8104C7.49015 29.7892 7.47474 29.7708 7.45566 29.7568C7.32973 29.6668 6.56285 29.238 4.62504 29.238C2.39254 29.238 0.102539 30.1874 0.102539 34.7537C0.102539 39.3193 2.72441 39.9996 4.93379 39.9996C6.76316 39.9996 7.87285 39.2177 7.87285 39.2177C7.91848 39.1927 7.92348 39.1287 7.92348 39.099V34.0002C7.92348 33.9588 7.90701 33.919 7.87771 33.8897C7.84841 33.8604 7.80867 33.8443 7.76723 33.8443ZM24.8457 29.628H22.9625C22.942 29.6281 22.9217 29.6323 22.9027 29.6402C22.8838 29.6481 22.8666 29.6598 22.8521 29.6744C22.8377 29.689 22.8262 29.7063 22.8185 29.7253C22.8107 29.7443 22.8068 29.7647 22.8069 29.7852L22.8075 33.424H19.8725V29.7852C19.8727 29.7647 19.8687 29.7444 19.861 29.7254C19.8533 29.7064 19.8419 29.6891 19.8274 29.6745C19.813 29.6599 19.7959 29.6483 19.777 29.6403C19.758 29.6323 19.7377 29.6282 19.7172 29.628H17.8344C17.8139 29.6281 17.7935 29.6323 17.7746 29.6402C17.7556 29.6481 17.7385 29.6598 17.724 29.6744C17.7095 29.689 17.6981 29.7063 17.6904 29.7253C17.6826 29.7443 17.6787 29.7647 17.6788 29.7852V39.6384C17.6788 39.7249 17.7488 39.7955 17.8344 39.7955H19.7172C19.7378 39.7954 19.7581 39.7912 19.777 39.7833C19.796 39.7753 19.8131 39.7636 19.8275 39.749C19.842 39.7344 19.8534 39.717 19.8611 39.698C19.8688 39.679 19.8727 39.6586 19.8725 39.638V35.4237H22.8075L22.8025 39.638C22.8025 39.7249 22.8725 39.7955 22.9588 39.7955H24.8457C24.8662 39.7954 24.8865 39.7912 24.9055 39.7833C24.9244 39.7753 24.9416 39.7636 24.956 39.749C24.9704 39.7344 24.9818 39.717 24.9895 39.698C24.9973 39.679 25.0011 39.6586 25.001 39.638V29.7849C25.0012 29.7644 24.9973 29.744 24.9896 29.725C24.9819 29.706 24.9705 29.6887 24.956 29.6741C24.9416 29.6595 24.9244 29.6479 24.9055 29.64C24.8865 29.6321 24.8662 29.628 24.8457 29.628ZM10.1063 29.8521C9.43629 29.8521 8.89254 30.3999 8.89254 31.078C8.89254 31.7552 9.43629 32.3046 10.1063 32.3046C10.7769 32.3046 11.3204 31.7552 11.3204 31.078C11.3204 30.3999 10.7766 29.8521 10.1063 29.8521ZM11.03 32.8546H9.15316C9.06691 32.8546 8.99004 32.9434 8.99004 33.0296V39.5458C8.99004 39.7374 9.10941 39.7943 9.26379 39.7943H10.9544C11.1404 39.7943 11.1857 39.703 11.1857 39.5427V33.0118C11.1857 32.9913 11.1818 32.9709 11.174 32.9519C11.1662 32.933 11.1548 32.9157 11.1403 32.9011C11.1259 32.8866 11.1087 32.875 11.0898 32.867C11.0709 32.8591 11.0506 32.8547 11.03 32.8546ZM32.1569 32.8693H30.2882C30.2676 32.8695 30.2474 32.8737 30.2285 32.8817C30.2096 32.8897 30.1924 32.9013 30.178 32.9159C30.1636 32.9306 30.1523 32.9479 30.1446 32.9669C30.1369 32.9859 30.133 33.0063 30.1332 33.0268V37.858C30.1332 37.858 29.6582 38.2049 28.9847 38.2049C28.3113 38.2049 28.1325 37.8996 28.1325 37.2399V33.0268C28.1327 33.0062 28.1288 32.9859 28.1211 32.9668C28.1134 32.9478 28.102 32.9305 28.0875 32.9158C28.0731 32.9012 28.056 32.8896 28.037 32.8816C28.0181 32.8736 27.9978 32.8694 27.9772 32.8693H26.081C26.0604 32.8694 26.04 32.8735 26.0211 32.8815C26.0021 32.8894 25.9849 32.9011 25.9704 32.9157C25.956 32.9303 25.9446 32.9477 25.9368 32.9668C25.9291 32.9858 25.9252 33.0062 25.9254 33.0268V37.5587C25.9254 39.518 27.0175 39.9974 28.5197 39.9974C29.7522 39.9974 30.746 39.3162 30.746 39.3162C30.746 39.3162 30.7929 39.6755 30.8147 39.7177C30.8366 39.7602 30.8919 39.803 30.9522 39.803L32.1585 39.7977C32.1791 39.7977 32.1995 39.7936 32.2186 39.7857C32.2376 39.7778 32.2549 39.7662 32.2694 39.7515C32.2839 39.7369 32.2954 39.7195 32.3032 39.7004C32.311 39.6813 32.3149 39.6608 32.3147 39.6402L32.3138 33.0259C32.3136 32.9844 32.2971 32.9447 32.2679 32.9153C32.2386 32.886 32.199 32.8693 32.1575 32.869L32.1569 32.8693ZM37.2638 32.648C36.2025 32.648 35.4807 33.1215 35.4807 33.1215V29.7849C35.4808 29.7644 35.4769 29.7441 35.4691 29.725C35.4614 29.706 35.45 29.6887 35.4356 29.6742C35.4211 29.6596 35.404 29.6479 35.3851 29.64C35.3662 29.632 35.3459 29.6278 35.3254 29.6277H33.4375C33.4169 29.6277 33.3965 29.6318 33.3775 29.6397C33.3585 29.6476 33.3412 29.6592 33.3267 29.6738C33.3122 29.6884 33.3007 29.7058 33.2929 29.7248C33.2851 29.7439 33.2812 29.7643 33.2813 29.7849V39.638C33.2812 39.6586 33.2851 39.6791 33.2929 39.6981C33.3007 39.7172 33.3122 39.7345 33.3267 39.7491C33.3412 39.7637 33.3585 39.7753 33.3775 39.7832C33.3965 39.7912 33.4169 39.7952 33.4375 39.7952H34.7475C34.8069 39.7952 34.8513 39.7649 34.8841 39.7115C34.9163 39.6584 34.9635 39.2571 34.9635 39.2571C34.9635 39.2571 35.7354 39.9883 37.1972 39.9883C38.9128 39.9883 39.8972 39.1184 39.8972 36.0815C39.8972 33.0446 38.3253 32.6477 37.2635 32.6477L37.2638 32.648ZM36.5263 38.1993C35.8785 38.1796 35.4388 37.8855 35.4388 37.8855V34.7652C35.4388 34.7652 35.8725 34.4996 36.4044 34.4515C37.0772 34.3912 37.7257 34.5946 37.7257 36.1996C37.7257 37.8924 37.4335 38.2265 36.5266 38.199L36.5263 38.1993ZM16.6235 38.1624C16.5413 38.1624 16.3307 38.1959 16.1141 38.1959C15.4204 38.1959 15.185 37.8734 15.185 37.4559V34.6852H16.5975C16.6182 34.6852 16.6386 34.6811 16.6576 34.6732C16.6767 34.6653 16.6939 34.6537 16.7085 34.639C16.723 34.6244 16.7345 34.607 16.7423 34.5879C16.75 34.5688 16.754 34.5483 16.7538 34.5277V33.0102C16.7539 32.9897 16.7499 32.9693 16.7421 32.9502C16.7343 32.9312 16.7228 32.9139 16.7082 32.8993C16.6937 32.8848 16.6765 32.8732 16.6575 32.8653C16.6385 32.8574 16.6181 32.8533 16.5975 32.8533H15.185L15.1829 30.9877C15.1829 30.9168 15.1466 30.8815 15.0647 30.8815H13.1397C13.0654 30.8815 13.025 30.9146 13.025 30.9862V32.9143C13.025 32.9143 12.0604 33.1471 11.9954 33.1658C11.9629 33.1753 11.9344 33.1951 11.9141 33.2221C11.8938 33.2491 11.8829 33.282 11.8829 33.3159V34.5274C11.8827 34.5479 11.8866 34.5683 11.8944 34.5873C11.9021 34.6063 11.9135 34.6236 11.928 34.6382C11.9424 34.6528 11.9595 34.6644 11.9784 34.6723C11.9974 34.6803 12.0176 34.6845 12.0382 34.6846H13.025V37.5996C13.025 39.7652 14.5438 39.9777 15.5688 39.9777C16.0366 39.9777 16.5969 39.8277 16.6894 39.7934C16.7457 39.7724 16.7779 39.7146 16.7779 39.6518L16.7791 38.319C16.7785 38.2777 16.7618 38.2382 16.7327 38.209C16.7035 38.1797 16.6641 38.1629 16.6229 38.1621L16.6235 38.1624Z" fill="black"/>
</g>
<defs>
<clipPath id="clip0_211_270">
<rect width="40" height="40" fill="white"/>
</clipPath>
</defs>
</svg>
