<svg width="40" height="40" viewBox="0 0 40 40" fill="none" xmlns="http://www.w3.org/2000/svg">
<path d="M6.11523 8.43761L8.64242 36.5373L19.9827 39.5629L31.3546 36.5945L33.8846 8.43761H6.11523ZM28.628 14.8348L28.4696 16.6579L28.3999 17.5001H15.0971L15.4149 21.2501H28.0837L27.999 21.9473L27.1818 30.9814L27.1218 31.5095L19.9999 33.4264V33.4248L19.9915 33.4285L12.8737 31.5798L12.3905 26.2501H15.8805L16.1277 28.8939L19.998 29.8748L19.9999 29.8017V29.8054L23.8787 28.9776L24.2837 24.6876H12.2352L11.3809 15.0514L11.2974 14.0626H28.7112L28.628 14.8348ZM8.73617 0.508545H10.493V2.24479H12.1005V0.508545H13.8577V5.76542H12.1005V4.00511H10.4934V5.76542H8.73617V0.508545ZM16.168 2.25198H14.6212V0.508545H19.4727V2.25198H17.9252V5.76542H16.168V2.25198ZM20.2427 0.508545H22.0746L23.2018 2.35573L24.3277 0.508545H26.1605V5.76542H24.4102V3.15979L23.2018 5.02886H23.1712L21.9618 3.15979V5.76542H20.2424L20.2427 0.508545ZM27.0352 0.508545H28.7927V4.02792H31.2637V5.76573H27.0352V0.508545Z" fill="black"/>
</svg>
