<svg width="40" height="40" viewBox="0 0 40 40" fill="none" xmlns="http://www.w3.org/2000/svg">
<path d="M8.70436 36.3606L6.19092 8.16968H33.809L31.2931 36.3562L19.9831 39.4916L8.70436 36.3606Z" fill="#E44D26"/>
<path d="M20 37.0951L29.1388 34.5613L31.2891 10.4751H20V37.0951Z" fill="#F16529"/>
<path d="M19.9998 20.9306H15.4245L15.1088 17.3896H19.9998V13.9321H11.3301L11.4126 14.8599L12.2626 24.3878H19.9998V20.9306ZM19.9998 29.9096L19.9845 29.9137L16.1341 28.8737L15.8879 26.1165H12.417L12.9013 31.5453L19.9838 33.5115L19.9998 33.5068V29.9096Z" fill="#EBEBEB"/>
<path d="M8.76074 0.508545H10.5176V2.24479H12.1251V0.508545H13.8823V5.76542H12.1251V4.00511H10.5179V5.76542H8.76074V0.508545ZM16.1926 2.25198H14.6457V0.508545H19.4973V2.25198H17.9498V5.76542H16.1926V2.25198ZM20.2673 0.508545H22.0992L23.2264 2.35573L24.3523 0.508545H26.1851V5.76542H24.4348V3.15979L23.2264 5.02886H23.1957L21.9864 3.15979V5.76542H20.267V0.508545H20.2673ZM27.0598 0.508545H28.8173V4.02792H31.2882V5.76573H27.0598V0.508545Z" fill="black"/>
<path d="M19.9883 20.9306V24.3878H24.2458L23.8445 28.8718L19.9883 29.9128V33.5096L27.0764 31.5453L27.1283 30.9609L27.9408 21.8587L28.0252 20.9306H27.0933H19.9883ZM19.9883 13.9321V17.3896H28.3398L28.4089 16.6124L28.5667 14.8599L28.6495 13.9321H19.9883Z" fill="white"/>
</svg>
