<svg width="40" height="40" viewBox="0 0 40 40" fill="none" xmlns="http://www.w3.org/2000/svg">
<path d="M8.67432 6.38168C6.37682 9.68324 6.66275 13.9792 8.41807 17.4879L8.54651 17.7373L8.62869 17.8954L8.67994 17.9864L8.77151 18.1501C8.82588 18.246 8.88171 18.3417 8.939 18.4373L9.03463 18.5948C9.09796 18.6967 9.16276 18.798 9.22901 18.8989L9.31182 19.0267C9.40328 19.1633 9.49713 19.2989 9.59338 19.4332L9.60151 19.4436L9.64901 19.5076C9.73255 19.6226 9.81807 19.7365 9.90557 19.8492L10.0021 19.972C10.08 20.0697 10.1591 20.167 10.2393 20.2639L10.3299 20.372C10.4378 20.4989 10.5481 20.6257 10.6603 20.7495L10.6668 20.7564L10.6796 20.7704C10.7893 20.8901 10.9015 21.0073 11.0156 21.1245L11.1231 21.2329C11.2114 21.3215 11.3008 21.4091 11.3912 21.4957L11.5009 21.6001C11.6215 21.7141 11.744 21.8255 11.8684 21.9345L11.874 21.9395L11.9381 21.9939C12.0479 22.0891 12.1591 22.183 12.2718 22.2757L12.4099 22.3861C12.5018 22.4596 12.5945 22.5321 12.6881 22.6036L12.8371 22.7164C12.9403 22.7922 13.0443 22.8669 13.1493 22.9404L13.2628 23.0211L13.2943 23.0436C13.3937 23.1123 13.4959 23.1782 13.5974 23.2442L13.7287 23.3317C13.8849 23.4301 14.0434 23.5279 14.2034 23.6223L14.3346 23.6964C14.4523 23.7643 14.5711 23.8308 14.6909 23.8961L14.8881 23.9979L15.1431 24.1304L15.2018 24.1589L15.3062 24.2092C15.4395 24.2731 15.5742 24.3355 15.7103 24.3964L15.7956 24.4345C15.9512 24.5026 16.1083 24.568 16.2668 24.6307L16.3818 24.6757C16.5287 24.7328 16.6769 24.7877 16.8265 24.8404L16.8824 24.8598C17.0462 24.9173 17.2118 24.9701 17.3784 25.0223L17.4981 25.0579C17.6674 25.1092 17.8353 25.1698 18.0099 25.2023C29.1203 27.2282 32.3474 18.5261 32.3474 18.5261C29.6368 22.0573 24.8259 22.9886 20.2674 21.9517C20.0946 21.9126 19.9271 21.8586 19.7587 21.8092L19.6318 21.7704C19.4675 21.7203 19.3042 21.6672 19.1418 21.6111L19.0746 21.587C18.9299 21.5357 18.7859 21.4822 18.6428 21.4267L18.5215 21.3792C18.3646 21.3173 18.2092 21.2527 18.0553 21.1854L17.9621 21.1439C17.8302 21.0846 17.6991 21.0236 17.5687 20.9611L17.4549 20.9064C17.3528 20.8567 17.2518 20.8039 17.1506 20.7517L16.9478 20.6451C16.8246 20.5793 16.7031 20.5112 16.5831 20.4407L16.4599 20.3723C16.3001 20.2777 16.1418 20.1806 15.9849 20.0811L15.8568 19.9957C15.743 19.9226 15.6304 19.8477 15.519 19.7711L15.4099 19.6945C15.3026 19.6189 15.1961 19.542 15.0906 19.4639L14.949 19.3567C14.8519 19.2827 14.7559 19.2076 14.6609 19.1314L14.5324 19.0282C14.4112 18.9291 14.2915 18.8281 14.1734 18.7254L14.134 18.6926C14.0065 18.5801 13.8806 18.4657 13.7565 18.3495L13.6503 18.247C13.5582 18.16 13.4678 18.0714 13.379 17.9811L13.2728 17.8748C13.1596 17.7592 13.0487 17.6419 12.9399 17.5229L12.9234 17.5051C12.8084 17.3793 12.6959 17.2513 12.5859 17.1211L12.4974 17.0161C12.4151 16.9171 12.3342 16.817 12.2546 16.7157L12.1656 16.6048C12.0703 16.4817 11.9767 16.3572 11.8849 16.2314C9.35432 12.7792 8.44494 8.01793 10.4678 4.10793M15.8056 3.5998C14.1443 5.99043 14.2343 9.19137 15.5306 11.7195C15.7476 12.1444 15.9931 12.5542 16.2653 12.9461C16.514 13.3032 16.7903 13.7276 17.1206 14.0142C17.2403 14.1461 17.3656 14.2748 17.4934 14.4011L17.5915 14.4982C17.7153 14.6189 17.8421 14.7368 17.9721 14.852L17.9878 14.8654L17.9915 14.8692C18.1359 14.9957 18.2849 15.1173 18.4362 15.2373L18.5371 15.3161C18.689 15.4323 18.8437 15.5467 19.0024 15.6557L19.0159 15.6661L19.2284 15.8057L19.329 15.8723C19.4423 15.9452 19.5573 16.0156 19.674 16.0836L19.7228 16.1123C19.8236 16.1702 19.9252 16.227 20.0274 16.2826L20.1359 16.3389L20.349 16.4495L20.3812 16.4642C20.5272 16.5365 20.6756 16.6055 20.8262 16.6714L20.9243 16.712C21.0449 16.7632 21.1665 16.8125 21.289 16.8598L21.4453 16.9173C21.5565 16.9586 21.6678 16.9964 21.7803 17.0339L21.9315 17.0823C22.0912 17.1317 22.2493 17.1945 22.4156 17.2223C30.9937 18.6432 32.974 12.0386 32.974 12.0386C31.189 14.6098 27.7318 15.8364 24.0428 14.8789C23.8797 14.8358 23.7177 14.7891 23.5568 14.7386L23.4109 14.6914C23.2969 14.6547 23.1836 14.6157 23.0712 14.5745L22.9178 14.5173C22.795 14.47 22.673 14.4207 22.5518 14.3695L22.4534 14.3279C22.3026 14.2621 22.1534 14.1927 22.0059 14.1198L21.7815 14.0057L21.6521 13.9392C21.5563 13.8871 21.4616 13.8336 21.3681 13.7786L21.3003 13.7401C21.1842 13.6725 21.0696 13.6025 20.9565 13.5301L20.8528 13.4611L20.6303 13.3136C20.4729 13.2044 20.3183 13.0913 20.1665 12.9745L20.0621 12.892C18.4474 11.6173 17.1674 9.8748 16.559 7.89918C15.9212 5.85012 16.0587 3.55012 17.1637 1.68324M21.8034 1.52137C20.824 2.96262 20.7278 4.75293 21.4074 6.3448C22.124 8.03449 23.5924 9.3598 25.3065 9.98855L25.5196 10.062L25.6134 10.092C25.7143 10.1239 25.8146 10.1607 25.919 10.1801C30.6556 11.0954 31.9403 7.7498 32.2821 7.25699C31.1568 8.8773 29.2656 9.26637 26.9449 8.70293C26.7551 8.65441 26.5678 8.59653 26.3837 8.52949C26.1567 8.44895 25.9341 8.35653 25.7168 8.25262C25.3044 8.05441 24.9127 7.81551 24.5478 7.53949C22.4712 5.96387 21.1815 2.95855 22.5365 0.510742" fill="#0868AC"/>
<path d="M20.7372 30.0922H19.4165C19.3792 30.0938 19.3434 30.1074 19.3144 30.1308C19.2853 30.1543 19.2645 30.1864 19.255 30.2225L18.7862 32.3913L18.3175 34.56C18.3083 34.5962 18.2876 34.6285 18.2585 34.652C18.2295 34.6754 18.1936 34.6889 18.1562 34.6903H17.2215C16.2969 34.6903 16.4037 34.0506 16.5931 33.1744L16.5987 33.1478L16.6194 33.0372L16.6231 33.0166L16.6653 32.7916L16.7106 32.5506L16.7587 32.3053L16.9719 31.2641L17.1853 30.2228C17.1894 30.2069 17.1896 30.1903 17.1861 30.1742C17.1826 30.1582 17.1754 30.1432 17.165 30.1305C17.1546 30.1178 17.1414 30.1076 17.1265 30.1009C17.1115 30.0942 17.0951 30.0911 17.0787 30.0919H15.7234C15.6861 30.0932 15.6502 30.1067 15.6212 30.1303C15.5922 30.1539 15.5717 30.1862 15.5628 30.2225L15.2712 31.605L14.98 32.9878L14.9794 32.9897L14.9525 33.1184C14.6169 34.6506 14.7056 36.1122 16.53 36.1581L16.5831 36.1591H19.4465C19.4839 36.1577 19.5198 36.1442 19.5488 36.1207C19.5779 36.0972 19.5986 36.065 19.6078 36.0288L20.2253 33.1259L20.8428 30.2228C20.8581 30.1509 20.8106 30.0925 20.7372 30.0922ZM6.59466 30.0769H5.14466C5.10718 30.0782 5.07112 30.0916 5.0418 30.115C5.01249 30.1384 4.99147 30.1706 4.98185 30.2069L4.84435 30.8137L4.70685 31.4206C4.69091 31.4922 4.73748 31.5506 4.81091 31.5506H6.27216C6.30953 31.5491 6.34541 31.5356 6.37454 31.5121C6.40367 31.4886 6.42452 31.4565 6.43404 31.4203L6.56685 30.8137L6.69966 30.2072C6.71498 30.1356 6.6681 30.0769 6.59466 30.0769ZM6.17404 31.9656H4.71248C4.67499 31.967 4.63893 31.9804 4.60962 32.0038C4.5803 32.0272 4.55929 32.0594 4.54966 32.0956L4.34435 33.005L4.13935 33.9141L4.08216 34.1747L3.88498 35.1028L3.6881 36.0313C3.67279 36.1028 3.64123 36.2184 3.61779 36.2878C3.61779 36.2878 3.34466 37.1003 2.8856 37.0909L2.8281 37.0897L2.43091 37.0825C2.39363 37.0835 2.35732 37.0964 2.32786 37.1192C2.29841 37.1421 2.27703 37.1738 2.26685 37.2097L2.11529 37.8469L1.96404 38.4838C1.94685 38.555 1.9931 38.6138 2.06591 38.615C2.32623 38.6181 2.90935 38.6247 3.26216 38.6247C4.40873 38.6247 5.01341 37.9894 5.4006 36.1613L5.85404 34.0631L6.27935 32.0953C6.29466 32.0244 6.24716 31.9656 6.17404 31.9656ZM33.0856 31.4738L33.025 31.2234L32.9653 30.9672L32.935 30.8378C32.8162 30.3763 32.4678 30.1103 31.7109 30.1103L30.5328 30.1091L29.4478 30.1075H28.2269C28.1895 30.1088 28.1536 30.1222 28.1246 30.1457C28.0955 30.1692 28.0749 30.2016 28.0659 30.2378L28.0119 30.4928L27.9481 30.7941L27.9303 30.8787L27.3806 33.4538L26.8587 35.8981C26.8431 35.97 26.8381 36.0581 26.8469 36.0938C26.8556 36.1297 26.9965 36.1591 27.0697 36.1591H28.1709C28.2444 36.1591 28.3372 36.1459 28.3772 36.1297C28.4172 36.1134 28.4762 35.9694 28.4909 35.8978L28.6865 34.9294L28.8825 33.9606L28.8828 33.9591L28.909 33.83L29.1465 32.7175L29.3562 31.735C29.3655 31.6989 29.3861 31.6667 29.4151 31.6432C29.4441 31.6197 29.4799 31.6062 29.5172 31.6047L32.9825 31.6031C33.0559 31.6038 33.1022 31.5453 33.0856 31.4738ZM37.5465 29.2113L37.2797 29.2122H36.1706C36.1299 29.2144 36.0903 29.2254 36.0543 29.2444C36.0183 29.2635 35.9869 29.2901 35.9622 29.3225L33.5094 32.9156C33.4681 32.9763 33.4209 32.9675 33.4047 32.8963L33.224 32.1047C33.2144 32.0684 33.1933 32.0361 33.164 32.0127C33.1346 31.9893 33.0985 31.976 33.0609 31.9747H31.4844C31.4109 31.9747 31.3675 32.0322 31.3875 32.1025L32.094 34.5778C32.114 34.6484 32.1156 34.7641 32.0975 34.8353L31.7897 36.0331C31.7712 36.1044 31.8162 36.1622 31.8897 36.1622H33.4481C33.4858 36.1607 33.5221 36.1474 33.5519 36.1243C33.5817 36.1011 33.6035 36.0693 33.6144 36.0331L33.9225 34.8353C33.9467 34.7508 33.9851 34.6711 34.0359 34.5994L38.0178 29.3147C38.0622 29.2559 38.0381 29.2081 37.965 29.2088L37.5465 29.2113ZM25.0197 32.3109V32.3097C25.0143 32.3474 24.9956 32.382 24.967 32.4073C24.9385 32.4325 24.9018 32.4468 24.8637 32.4475H22.8647C22.7953 32.4475 22.7603 32.4006 22.7706 32.3425L22.7725 32.3378L22.7712 32.3384L22.7722 32.3319L22.7812 32.2978C22.9722 31.7903 23.3609 31.4572 24.0919 31.4572C24.915 31.4569 25.0756 31.8587 25.0197 32.3109ZM24.4331 30.0034C21.8672 30.0034 21.259 31.5609 20.9178 33.1331C20.5769 34.7356 20.6059 36.2334 23.2615 36.2334H23.5834L23.6634 36.2331H23.6822L24.0009 36.2322H24.0065C24.7078 36.2294 25.4112 36.2241 25.6959 36.2219C25.7331 36.2201 25.7686 36.2064 25.7973 36.1828C25.826 36.1591 25.8462 36.1268 25.855 36.0906L25.9625 35.5653L25.9834 35.4631L26.1115 34.8363C26.1156 34.8204 26.1159 34.8037 26.1124 34.7877C26.1089 34.7717 26.1016 34.7567 26.0913 34.744C26.0809 34.7313 26.0677 34.7212 26.0527 34.7145C26.0377 34.7079 26.0214 34.7048 26.005 34.7056H23.6178C22.6681 34.7056 22.3862 34.4534 22.4903 33.7116H26.3062L26.3059 33.7119L26.3084 33.7116C26.3386 33.7104 26.3679 33.7004 26.3925 33.683C26.4172 33.6655 26.4363 33.6412 26.4475 33.6131L26.4565 33.58L26.4562 33.5803C27.0228 31.4431 26.8603 30.0038 24.4331 30.0034ZM12.305 32.3028L12.2687 32.4306L11.9806 33.4522L11.6925 34.4731C11.6805 34.5092 11.6579 34.5408 11.6276 34.5638C11.5973 34.5867 11.5608 34.5999 11.5228 34.6016H9.99779C8.84091 34.6016 8.55904 33.6966 8.84091 32.3622C9.12248 30.9972 9.67466 30.1487 10.8134 30.0628C12.3697 29.9453 12.6809 31.0397 12.305 32.3028ZM13.3512 34.5231C13.3512 34.5231 14.0703 32.7769 14.2334 31.7688C14.4562 30.4191 13.7803 28.4609 11.1697 28.4609C8.57404 28.4609 7.44654 30.33 7.01654 32.3622C6.58654 34.4091 7.14998 36.2038 9.73091 36.1891L11.7672 36.1816L13.67 36.1747C13.7077 36.1728 13.7439 36.1594 13.7738 36.1363C13.8036 36.1131 13.8256 36.0814 13.8369 36.0453L14.1684 34.7809C14.1869 34.7097 14.1422 34.6516 14.0687 34.6509L13.7509 34.6491L13.4331 34.6472C13.3709 34.6469 13.3353 34.6063 13.3428 34.5528L13.3512 34.5231ZM26.2012 33.3541C26.2012 33.3656 26.199 33.3769 26.1946 33.3876C26.1902 33.3982 26.1838 33.4078 26.1757 33.416C26.1676 33.4241 26.158 33.4306 26.1474 33.435C26.1367 33.4394 26.1254 33.4417 26.1139 33.4417C26.1024 33.4417 26.091 33.4395 26.0804 33.4351C26.0698 33.4307 26.0601 33.4243 26.052 33.4162C26.0438 33.4081 26.0374 33.3985 26.0329 33.3878C26.0285 33.3772 26.0262 33.3659 26.0262 33.3544C26.0262 33.3312 26.0354 33.3089 26.0517 33.2925C26.0681 33.276 26.0904 33.2668 26.1136 33.2667C26.1368 33.2667 26.159 33.2759 26.1755 33.2922C26.1919 33.3086 26.2012 33.3309 26.2012 33.3541Z" fill="#131B28"/>
</svg>
