<svg width="40" height="40" viewBox="0 0 40 40" fill="none" xmlns="http://www.w3.org/2000/svg">
<path d="M14.9878 24.6937L15.0481 24.723L15.1556 24.7749C15.2927 24.8405 15.4311 24.9046 15.5709 24.9671L15.6587 25.0062C15.8189 25.0764 15.9805 25.1436 16.1434 25.2077L16.2615 25.254C16.4126 25.3129 16.565 25.3695 16.7187 25.4237L16.7762 25.4434C16.9447 25.5021 17.1147 25.5568 17.2862 25.6102L17.4097 25.6468C17.584 25.6996 17.7562 25.7624 17.9362 25.7959C29.3594 27.8787 32.6772 18.9312 32.6772 18.9312C29.8903 22.5618 24.9437 23.5196 20.2569 22.4534C20.0794 22.4134 19.9069 22.3577 19.7337 22.3065L19.6034 22.2671C19.4346 22.2153 19.2667 22.1607 19.0997 22.1034L19.0306 22.0784C18.8818 22.0257 18.7337 21.9708 18.5865 21.9137L18.4622 21.8649C18.3011 21.8016 18.1413 21.7351 17.9828 21.6655L17.8869 21.623C17.7513 21.5619 17.6165 21.4992 17.4825 21.4349L17.3653 21.3787C17.2603 21.3274 17.1562 21.2727 17.0525 21.2193L16.8437 21.1099C16.7176 21.0421 16.5927 20.972 16.469 20.8996L16.3425 20.829C16.1781 20.7317 16.0153 20.6319 15.854 20.5296L15.7225 20.4421C15.6054 20.367 15.4895 20.29 15.375 20.2112L15.2631 20.1324C15.1527 20.0543 15.0432 19.9751 14.9347 19.8949L14.789 19.7846C14.6893 19.7088 14.5905 19.6317 14.4928 19.5534L14.3606 19.4471C14.2362 19.345 14.1131 19.2413 13.9912 19.1362L13.9509 19.1021C13.8194 18.9869 13.6898 18.8695 13.5622 18.7499L13.4528 18.6446C13.3582 18.555 13.2652 18.464 13.1737 18.3715L13.0644 18.2621C12.9484 18.1433 12.8343 18.0227 12.7222 17.9002L12.7053 17.8821C12.5871 17.7527 12.4713 17.621 12.3581 17.4871L12.2672 17.379C12.1826 17.2773 12.0994 17.1744 12.0175 17.0702L11.9259 16.9565C11.8279 16.8299 11.7318 16.7018 11.6375 16.5724C9.0356 13.023 8.1006 8.12773 10.1803 4.10741L8.33685 6.44554C5.97466 9.84023 6.26904 14.2571 8.0731 17.8646L8.20529 18.1212L8.28998 18.2837L8.34248 18.3771L8.43654 18.5455C8.49237 18.6443 8.54966 18.7426 8.60841 18.8405L8.70685 19.0027C8.77185 19.1075 8.83852 19.2117 8.90685 19.3152L8.99185 19.4471C9.08581 19.5875 9.18227 19.7267 9.28123 19.8646L9.28966 19.8755L9.33841 19.9415C9.42466 20.0598 9.51258 20.1768 9.60216 20.2924L9.70154 20.4187C9.78133 20.5191 9.86258 20.619 9.94529 20.7184L10.0384 20.8293C10.1492 20.9605 10.2625 21.0899 10.3781 21.2174L10.385 21.2246L10.3981 21.239C10.5106 21.3621 10.6262 21.4821 10.7431 21.6027L10.8537 21.7143C10.9444 21.8053 11.0362 21.8954 11.1294 21.9846L11.2422 22.0918C11.3659 22.2087 11.4917 22.3234 11.6197 22.4359L11.6259 22.4405L11.6915 22.4968C11.8047 22.5947 11.9191 22.6914 12.035 22.7868L12.1772 22.8999C12.2715 22.9755 12.367 23.0501 12.4634 23.1237L12.6162 23.2399C12.7225 23.318 12.8295 23.3948 12.9372 23.4702L13.0544 23.5534L13.0865 23.5762C13.189 23.6468 13.2937 23.7143 13.3984 23.7821L13.5334 23.8721C13.6938 23.9742 13.8565 24.0738 14.0215 24.1709L14.1565 24.2471C14.2774 24.3169 14.3995 24.3852 14.5228 24.4521L14.7253 24.5571L14.9878 24.6937ZM16.1419 13.1952C16.3978 13.5621 16.6812 13.9984 17.0209 14.2934C17.144 14.429 17.2728 14.5609 17.404 14.6912L17.5053 14.7905C17.6328 14.9145 17.7632 15.0357 17.8965 15.1543L17.9128 15.168L17.9165 15.1721C18.065 15.3021 18.2181 15.4271 18.3737 15.5502L18.4778 15.6315C18.634 15.7512 18.7931 15.8687 18.9562 15.9809L18.9703 15.9912L19.1884 16.1349L19.2922 16.2037C19.4087 16.278 19.5265 16.3512 19.6469 16.4205L19.6969 16.4496C19.8006 16.5094 19.9051 16.5678 20.0103 16.6249L20.1215 16.6834L20.3409 16.7968L20.374 16.8118C20.5245 16.886 20.677 16.957 20.8315 17.0249L20.9325 17.0665C21.0564 17.1194 21.1813 17.1701 21.3072 17.2187L21.4678 17.2774C21.5822 17.3199 21.6965 17.3587 21.8122 17.3971L21.9681 17.4471C22.1325 17.498 22.2947 17.5624 22.4659 17.5909C31.2853 19.0524 33.3215 12.2615 33.3215 12.2615C31.4859 14.9049 27.9315 16.1659 24.1384 15.1815C23.9708 15.1374 23.8043 15.0893 23.639 15.0371L23.4887 14.9887C23.3714 14.9507 23.255 14.9106 23.1394 14.8684L22.9819 14.8096C22.8556 14.7611 22.7302 14.7106 22.6056 14.658L22.5044 14.6149C22.3492 14.5475 22.1958 14.4761 22.0444 14.4009L21.8134 14.2834L21.6803 14.2149C21.5822 14.1614 21.4849 14.1065 21.3884 14.0502L21.3187 14.0105C21.1995 13.9409 21.0816 13.8692 20.965 13.7952L20.8584 13.7237L20.6297 13.5724C20.4679 13.4602 20.309 13.3441 20.1531 13.224L20.0459 13.1393C18.3856 11.829 17.0697 10.0371 16.4437 8.00554C15.7881 5.89929 15.9294 3.53429 17.0653 1.61522L15.6697 3.58585C13.9615 6.04366 14.0544 9.3346 15.3869 11.9343C15.61 12.3711 15.8622 12.7923 16.1419 13.1952ZM25.4378 10.1543L25.6569 10.2302L25.7534 10.2608C25.8575 10.2934 25.9603 10.3315 26.0675 10.3515C30.9372 11.2924 32.2584 7.85241 32.61 7.34616C31.4528 9.0121 29.5084 9.41179 27.1225 8.83273C26.9271 8.78319 26.7343 8.72374 26.545 8.6546C26.3118 8.57167 26.0831 8.47675 25.8597 8.37023C25.4357 8.16621 25.0331 7.92052 24.6578 7.63679C22.5228 6.01648 21.1965 2.92679 22.5897 0.409912L21.8359 1.44866C20.829 2.93085 20.73 4.77147 21.4287 6.40772C22.1656 8.14523 23.6756 9.50772 25.4378 10.1543ZM20.7372 30.0921H19.4165C19.3792 30.0937 19.3434 30.1073 19.3144 30.1307C19.2853 30.1542 19.2645 30.1863 19.255 30.2224L18.7862 32.3912L18.3175 34.5599C18.3083 34.5961 18.2876 34.6284 18.2585 34.6519C18.2295 34.6754 18.1936 34.6888 18.1562 34.6902H17.2215C16.2969 34.6902 16.4037 34.0505 16.5931 33.1743L16.5987 33.1477L16.6194 33.0371L16.6231 33.0165L16.6653 32.7915L16.7106 32.5505L16.7587 32.3052L16.9719 31.264L17.1853 30.2227C17.1894 30.2068 17.1896 30.1902 17.1861 30.1742C17.1826 30.1581 17.1754 30.1431 17.165 30.1304C17.1546 30.1177 17.1414 30.1075 17.1265 30.1008C17.1115 30.0941 17.0951 30.091 17.0787 30.0918H15.7234C15.6861 30.0931 15.6502 30.1066 15.6212 30.1302C15.5922 30.1538 15.5717 30.1861 15.5628 30.2224L15.2712 31.6049L14.98 32.9877L14.9794 32.9896L14.9525 33.1184C14.6169 34.6505 14.7056 36.1121 16.53 36.158L16.5831 36.159H19.4465C19.4839 36.1576 19.5198 36.1441 19.5488 36.1206C19.5779 36.0971 19.5986 36.0649 19.6078 36.0287L20.2253 33.1259L20.8428 30.2227C20.8581 30.1509 20.8106 30.0924 20.7372 30.0921ZM6.59466 30.0768H5.14466C5.10718 30.0781 5.07112 30.0915 5.0418 30.1149C5.01249 30.1383 4.99147 30.1705 4.98185 30.2068L4.84435 30.8137L4.70685 31.4205C4.69091 31.4921 4.73748 31.5505 4.81091 31.5505H6.27216C6.30953 31.549 6.34541 31.5355 6.37454 31.512C6.40367 31.4886 6.42452 31.4564 6.43404 31.4202L6.56685 30.8137L6.69966 30.2071C6.71498 30.1355 6.6681 30.0768 6.59466 30.0768ZM6.17404 31.9655H4.71248C4.67499 31.9669 4.63893 31.9803 4.60962 32.0037C4.5803 32.0271 4.55929 32.0593 4.54966 32.0955L4.34435 33.0049L4.13935 33.914L4.08216 34.1746L3.88498 35.1027L3.6881 36.0312C3.67279 36.1027 3.64123 36.2184 3.61779 36.2877C3.61779 36.2877 3.34466 37.1002 2.8856 37.0909L2.8281 37.0896L2.43091 37.0824C2.39363 37.0834 2.35732 37.0963 2.32786 37.1191C2.29841 37.142 2.27703 37.1737 2.26685 37.2096L2.11529 37.8468L1.96404 38.4837C1.94685 38.5549 1.9931 38.6137 2.06591 38.6149C2.32623 38.618 2.90935 38.6246 3.26216 38.6246C4.40873 38.6246 5.01341 37.9893 5.4006 36.1612L5.85404 34.063L6.27935 32.0952C6.29466 32.0243 6.24716 31.9655 6.17404 31.9655ZM33.0856 31.4737L33.025 31.2234L32.9653 30.9671L32.935 30.8377C32.8162 30.3762 32.4678 30.1102 31.7109 30.1102L30.5328 30.109L29.4478 30.1074H28.2269C28.1895 30.1087 28.1536 30.1221 28.1246 30.1456C28.0955 30.1691 28.0749 30.2015 28.0659 30.2377L28.0119 30.4927L27.9481 30.794L27.9303 30.8787L27.3806 33.4537L26.8587 35.898C26.8431 35.9699 26.8381 36.058 26.8469 36.0937C26.8556 36.1296 26.9965 36.159 27.0697 36.159H28.1709C28.2444 36.159 28.3372 36.1459 28.3772 36.1296C28.4172 36.1134 28.4762 35.9693 28.4909 35.8977L28.6865 34.9293L28.8825 33.9605L28.8828 33.959L28.909 33.8299L29.1465 32.7174L29.3562 31.7349C29.3655 31.6988 29.3861 31.6666 29.4151 31.6431C29.4441 31.6196 29.4799 31.6061 29.5172 31.6046L32.9825 31.603C33.0559 31.6037 33.1022 31.5452 33.0856 31.4737ZM37.5465 29.2112L37.2797 29.2121H36.1706C36.1299 29.2143 36.0903 29.2253 36.0543 29.2444C36.0183 29.2634 35.9869 29.29 35.9622 29.3224L33.5094 32.9155C33.4681 32.9762 33.4209 32.9674 33.4047 32.8962L33.224 32.1046C33.2144 32.0683 33.1933 32.0361 33.164 32.0126C33.1346 31.9892 33.0985 31.9759 33.0609 31.9746H31.4844C31.4109 31.9746 31.3675 32.0321 31.3875 32.1024L32.094 34.5777C32.114 34.6484 32.1156 34.764 32.0975 34.8352L31.7897 36.033C31.7712 36.1043 31.8162 36.1621 31.8897 36.1621H33.4481C33.4858 36.1606 33.5221 36.1473 33.5519 36.1242C33.5817 36.101 33.6035 36.0692 33.6144 36.033L33.9225 34.8352C33.9467 34.7508 33.9851 34.671 34.0359 34.5993L38.0178 29.3146C38.0622 29.2559 38.0381 29.208 37.965 29.2087L37.5465 29.2112ZM25.0197 32.3109V32.3096C25.0143 32.3473 24.9956 32.3819 24.967 32.4072C24.9385 32.4324 24.9018 32.4467 24.8637 32.4474H22.8647C22.7953 32.4474 22.7603 32.4005 22.7706 32.3424L22.7725 32.3377L22.7712 32.3384L22.7722 32.3318L22.7812 32.2977C22.9722 31.7902 23.3609 31.4571 24.0919 31.4571C24.915 31.4568 25.0756 31.8587 25.0197 32.3109ZM24.4331 30.0034C21.8672 30.0034 21.259 31.5609 20.9178 33.133C20.5769 34.7355 20.6059 36.2334 23.2615 36.2334H23.5834L23.6634 36.233H23.6822L24.0009 36.2321H24.0065C24.7078 36.2293 25.4112 36.224 25.6959 36.2218C25.7331 36.2201 25.7686 36.2063 25.7973 36.1827C25.826 36.159 25.8462 36.1267 25.855 36.0905L25.9625 35.5652L25.9834 35.463L26.1115 34.8362C26.1156 34.8203 26.1159 34.8037 26.1124 34.7876C26.1089 34.7716 26.1016 34.7566 26.0913 34.7439C26.0809 34.7312 26.0677 34.7211 26.0527 34.7145C26.0377 34.7078 26.0214 34.7047 26.005 34.7055H23.6178C22.6681 34.7055 22.3862 34.4534 22.4903 33.7115H26.3062L26.3059 33.7118L26.3084 33.7115C26.3386 33.7103 26.3679 33.7004 26.3925 33.6829C26.4172 33.6654 26.4363 33.6411 26.4475 33.613L26.4565 33.5799L26.4562 33.5802C27.0228 31.443 26.8603 30.0037 24.4331 30.0034ZM12.305 32.3027L12.2687 32.4305L11.9806 33.4521L11.6925 34.473C11.6805 34.5091 11.6579 34.5407 11.6276 34.5637C11.5973 34.5866 11.5608 34.5998 11.5228 34.6015H9.99779C8.84091 34.6015 8.55904 33.6965 8.84091 32.3621C9.12248 30.9971 9.67466 30.1487 10.8134 30.0627C12.3697 29.9452 12.6809 31.0396 12.305 32.3027ZM13.3512 34.523C13.3512 34.523 14.0703 32.7768 14.2334 31.7687C14.4562 30.419 13.7803 28.4609 11.1697 28.4609C8.57404 28.4609 7.44654 30.3299 7.01654 32.3621C6.58654 34.409 7.14998 36.2037 9.73091 36.189L11.7672 36.1815L13.67 36.1746C13.7077 36.1727 13.7439 36.1593 13.7738 36.1362C13.8036 36.113 13.8256 36.0813 13.8369 36.0452L14.1684 34.7809C14.1869 34.7096 14.1422 34.6515 14.0687 34.6509L13.7509 34.649L13.4331 34.6471C13.3709 34.6468 13.3353 34.6062 13.3428 34.5527L13.3512 34.523ZM26.2012 33.354C26.2012 33.3655 26.199 33.3769 26.1946 33.3875C26.1902 33.3981 26.1838 33.4078 26.1757 33.4159C26.1676 33.424 26.158 33.4305 26.1474 33.4349C26.1367 33.4393 26.1254 33.4416 26.1139 33.4416C26.1024 33.4417 26.091 33.4394 26.0804 33.435C26.0698 33.4307 26.0601 33.4242 26.052 33.4161C26.0438 33.408 26.0374 33.3984 26.0329 33.3878C26.0285 33.3772 26.0262 33.3658 26.0262 33.3543C26.0262 33.3311 26.0354 33.3088 26.0517 33.2924C26.0681 33.2759 26.0904 33.2667 26.1136 33.2666C26.1368 33.2666 26.159 33.2758 26.1755 33.2922C26.1919 33.3085 26.2012 33.3308 26.2012 33.354Z" fill="black"/>
</svg>
