<svg width="39" height="40" viewBox="0 0 39 40" fill="none" xmlns="http://www.w3.org/2000/svg">
<g clip-path="url(#clip0_378_154)">
<path d="M2.40228 1.72208L24.4915 0.0907365C27.2048 -0.142099 27.902 0.0149156 29.6079 1.25506L36.6591 6.22253C37.8223 7.07671 38.2094 7.30969 38.2094 8.23984V35.4827C38.2094 37.19 37.5893 38.1998 35.419 38.3543L9.76765 39.9072C8.13885 39.9843 7.36317 39.7515 6.51019 38.6643L1.3178 31.9125C0.386458 30.6697 0.000488281 29.7394 0.000488281 28.6522V4.43671C0.000488281 3.04089 0.620637 1.87656 2.40228 1.72208Z" fill="white"/>
<path d="M24.4915 0.0907365L2.40228 1.72208C0.620637 1.87656 0.000488281 3.04089 0.000488281 4.43671V28.6524C0.000488281 29.7395 0.386309 30.6697 1.3178 31.9125L6.51019 38.6643C7.36317 39.7515 8.13885 39.9843 9.76765 39.9072L35.419 38.3543C37.5879 38.1998 38.2094 37.19 38.2094 35.4827V8.23984C38.2094 7.3576 37.8608 7.10342 36.8348 6.35029L36.6579 6.22253L29.6079 1.25506C27.902 0.0149156 27.205 -0.142099 24.4915 0.0907365ZM10.3478 7.79402C8.25332 7.93506 7.77825 7.967 6.5887 6.99954L3.56407 4.59372C3.25661 4.28238 3.41094 3.89372 4.18541 3.81656L25.4203 2.26506C27.2035 2.10939 28.1323 2.73074 28.8296 3.27372L32.4715 5.91253C32.6272 5.99089 33.0145 6.45536 32.5487 6.45536L10.6193 7.77536L10.3478 7.79402ZM7.90601 35.2498V12.1227C7.90601 11.1127 8.21601 10.647 9.14482 10.5685L34.3318 9.09402C35.1862 9.01686 35.5721 9.55969 35.5721 10.5685V33.5412C35.5721 34.5512 35.4163 35.4054 34.0218 35.4827L9.91929 36.8798C8.52482 36.957 7.90601 36.4927 7.90601 35.2498ZM31.6985 13.3627C31.8529 14.0613 31.6985 14.76 30.9999 14.8398L29.8382 15.07V32.1452C28.8296 32.688 27.9008 32.9982 27.1248 32.9982C25.8848 32.9982 25.5747 32.6095 24.6459 31.4466L17.0491 19.4945V31.0581L19.4521 31.6022C19.4521 31.6022 19.4521 32.9995 17.5135 32.9995L12.1681 33.3095C12.0124 32.9982 12.1681 32.2224 12.7099 32.068L14.1056 31.6807V16.3915L12.1682 16.2345C12.0124 15.536 12.3996 14.5272 13.4856 14.4486L19.2208 14.0628L27.125 26.1692V15.4588L25.1103 15.2272C24.9547 14.3715 25.5747 13.7501 26.3491 13.6743L31.6985 13.3627Z" fill="black"/>
</g>
<defs>
<clipPath id="clip0_378_154">
<rect width="38.21" height="40" fill="white"/>
</clipPath>
</defs>
</svg>
