<svg width="40" height="40" viewBox="0 0 40 40" fill="none" xmlns="http://www.w3.org/2000/svg">
<path d="M35 7.5C35 7.83152 34.8683 8.14946 34.6339 8.38388C34.3995 8.6183 34.0815 8.75 33.75 8.75H31.25V32.5C31.25 32.8315 31.1183 33.1495 30.8839 33.3839C30.6495 33.6183 30.3315 33.75 30 33.75H23.75C23.5265 33.7498 23.3072 33.6897 23.1148 33.5759C22.9224 33.4621 22.7641 33.2989 22.6562 33.1031L11.25 12.3672V31.25H13.75C14.0815 31.25 14.3995 31.3817 14.6339 31.6161C14.8683 31.8505 15 32.1685 15 32.5C15 32.8315 14.8683 33.1495 14.6339 33.3839C14.3995 33.6183 14.0815 33.75 13.75 33.75H6.25C5.91848 33.75 5.60054 33.6183 5.36612 33.3839C5.1317 33.1495 5 32.8315 5 32.5C5 32.1685 5.1317 31.8505 5.36612 31.6161C5.60054 31.3817 5.91848 31.25 6.25 31.25H8.75V8.75H6.25C5.91848 8.75 5.60054 8.6183 5.36612 8.38388C5.1317 8.14946 5 7.83152 5 7.5C5 7.16848 5.1317 6.85054 5.36612 6.61612C5.60054 6.3817 5.91848 6.25 6.25 6.25H16.25C16.4735 6.2502 16.6928 6.31032 16.8852 6.42409C17.0776 6.53786 17.2359 6.70112 17.3438 6.89687L28.75 27.6328V8.75H26.25C25.9185 8.75 25.6005 8.6183 25.3661 8.38388C25.1317 8.14946 25 7.83152 25 7.5C25 7.16848 25.1317 6.85054 25.3661 6.61612C25.6005 6.3817 25.9185 6.25 26.25 6.25H33.75C34.0815 6.25 34.3995 6.3817 34.6339 6.61612C34.8683 6.85054 35 7.16848 35 7.5Z" fill="black"/>
</svg>
