<svg width="40" height="40" viewBox="0 0 40 40" fill="none" xmlns="http://www.w3.org/2000/svg">
<path d="M13.3335 13.3333V18.3333H15.8335C16.4965 18.3333 17.1324 18.0699 17.6013 17.601C18.0701 17.1322 18.3335 16.4963 18.3335 15.8333C18.3335 15.1702 18.0701 14.5343 17.6013 14.0655C17.1324 13.5966 16.4965 13.3333 15.8335 13.3333H13.3335Z" fill="black"/>
<path d="M36.6668 3.33325H3.3335V36.6666H36.6668V3.33325ZM13.3335 21.6666V29.9999H10.0002V9.99992H15.8335C16.5995 9.99992 17.3581 10.1508 18.0658 10.444C18.7735 10.7371 19.4166 11.1668 19.9583 11.7085C20.5 12.2501 20.9296 12.8932 21.2228 13.6009C21.5159 14.3087 21.6668 15.0672 21.6668 15.8333C21.6668 16.5993 21.5159 17.3578 21.2228 18.0656C20.9296 18.7733 20.5 19.4164 19.9583 19.958C19.4166 20.4997 18.7735 20.9294 18.0658 21.2225C17.3581 21.5157 16.5995 21.6666 15.8335 21.6666H13.3335ZM22.5002 20.7549C22.5002 19.6706 22.9309 18.6307 23.6976 17.864C24.4643 17.0973 25.5042 16.6666 26.5885 16.6666H30.0002V19.9999H26.5885C26.409 19.9997 26.2354 20.0635 26.0987 20.1797C25.9619 20.2959 25.8711 20.4571 25.8424 20.6342C25.8137 20.8114 25.849 20.9929 25.9421 21.1464C26.0351 21.2998 26.1798 21.4151 26.3502 21.4716L28.0385 22.0333C28.9593 22.3404 29.7409 22.9651 30.2433 23.7957C30.7456 24.6263 30.9361 25.6086 30.7806 26.5667C30.625 27.5249 30.1336 28.3964 29.3942 29.0255C28.6549 29.6545 27.7159 29.9999 26.7452 29.9999H22.5002V26.6666H26.7452C26.9246 26.6668 27.0983 26.603 27.235 26.4868C27.3717 26.3706 27.4626 26.2094 27.4913 26.0323C27.52 25.8551 27.4846 25.6736 27.3916 25.5201C27.2985 25.3667 27.1538 25.2514 26.9835 25.1949L25.2952 24.6333C24.4808 24.3625 23.7725 23.8421 23.2708 23.1459C22.769 22.4497 22.4994 21.6131 22.5002 20.7549Z" fill="black"/>
</svg>
