<svg width="40" height="40" viewBox="0 0 40 40" fill="none" xmlns="http://www.w3.org/2000/svg">
<g clip-path="url(#clip0_378_158)">
<path d="M7.08344 0.5H32.9166C36.8334 0.5 40 3.66656 40 7.58344V32.4166C40 36.3334 36.8334 39.5 32.9166 39.5H7.08344C3.16656 39.5 0 36.3334 0 32.4166V7.58344C0 3.66656 3.16656 0.5 7.08344 0.5Z" fill="#001E36"/>
<path d="M14.3334 10.4165C13.8334 10.4165 13.3334 10.4165 12.8169 10.4334C12.3 10.4499 11.8166 10.4499 11.3666 10.4668C10.9166 10.4834 10.5 10.4834 10.1 10.4999C9.71656 10.5165 9.45 10.5165 9.16656 10.5165C9.05 10.5165 9 10.5831 9 10.6999V27.8499C9 27.9999 9.06656 28.0668 9.2 28.0668H12.4334C12.55 28.0499 12.6334 27.9499 12.6166 27.8334V22.4834C12.9331 22.4834 13.1666 22.4834 13.3334 22.4999C13.5 22.5165 13.7666 22.5165 14.1666 22.5165C15.5334 22.5165 16.7834 22.3665 17.9166 21.9499C19 21.5499 19.9334 20.8499 20.6 19.9165C21.2667 18.9832 21.6 17.7998 21.6 16.3665C21.6 15.6165 21.4669 14.8999 21.2169 14.1999C20.952 13.4868 20.537 12.8388 20 12.2999C19.3662 11.6842 18.6033 11.2173 17.7666 10.9331C16.8331 10.5831 15.7 10.4165 14.3334 10.4165ZM14.7053 13.6993C15.2991 13.7106 15.8772 13.8143 16.4166 14.0331C16.9 14.2165 17.3 14.5499 17.5834 14.9831C17.8493 15.4313 17.9822 15.9459 17.9669 16.4668C17.9669 17.1999 17.8 17.7668 17.45 18.1834C17.0831 18.5999 16.6166 18.9168 16.0834 19.0668C15.4666 19.2668 14.8166 19.3665 14.1666 19.3665H13.2831C13.0831 19.3665 12.8669 19.3499 12.6334 19.3334V13.7334C12.75 13.7165 12.9834 13.6999 13.3169 13.7168C13.6334 13.6999 14.0166 13.6999 14.45 13.6999C14.5354 13.6979 14.6205 13.6977 14.7053 13.6993ZM28.6834 14.5503C27.5 14.5503 26.5166 14.7334 25.7334 15.1334C25.0169 15.4668 24.4 15.9999 23.9834 16.6665C23.6169 17.2834 23.4166 17.9665 23.4166 18.6834C23.4023 19.273 23.534 19.857 23.8 20.3834C24.1117 20.9439 24.5445 21.4278 25.0669 21.7999C25.8 22.3014 26.5956 22.7048 27.4334 22.9999C28.25 23.3165 28.8 23.5665 29.0669 23.7831C29.3334 23.9999 29.4669 24.2165 29.4669 24.4499C29.4669 24.7499 29.2834 25.0334 29.0169 25.1499C28.7169 25.2999 28.2669 25.3834 27.6334 25.3834C26.9669 25.3834 26.3 25.2999 25.6666 25.1334C24.9392 24.9709 24.2419 24.6954 23.6 24.3168C23.55 24.2834 23.5 24.2668 23.45 24.3003C23.4 24.3334 23.3834 24.3999 23.3834 24.4499V27.3499C23.3669 27.4834 23.45 27.5999 23.5669 27.6665C24.1073 27.919 24.679 28.0984 25.2669 28.1999C26.0169 28.3499 26.7666 28.4165 27.5331 28.4165C28.7331 28.4165 29.7334 28.2334 30.55 27.8834C31.3 27.5834 31.95 27.0668 32.4166 26.3999C32.8535 25.7443 33.0803 24.9711 33.0666 24.1834C33.083 23.5883 32.9514 22.9984 32.6834 22.4668C32.3666 21.8999 31.9166 21.4334 31.3666 21.0834C30.562 20.5781 29.7005 20.1696 28.8 19.8665C28.3979 19.7001 28.003 19.5166 27.6166 19.3165C27.4 19.1999 27.2 19.0499 27.05 18.8665C26.95 18.7331 26.8834 18.5834 26.8834 18.4334C26.8834 18.2834 26.9334 18.1168 27.0166 17.9834C27.1334 17.8168 27.3166 17.6999 27.5331 17.6499C27.85 17.5668 28.2 17.5165 28.5331 17.5331C29.1666 17.5331 29.7831 17.6165 30.4 17.7499C30.9669 17.8665 31.5 18.0499 32 18.3168C32.0666 18.3499 32.15 18.3499 32.3 18.3168C32.326 18.2975 32.3472 18.2723 32.3617 18.2434C32.3762 18.2144 32.3836 18.1824 32.3834 18.1499V15.4334C32.3834 15.3665 32.3666 15.2999 32.35 15.2334C32.3166 15.1668 32.25 15.0999 32.1834 15.0834C31.7237 14.8955 31.2421 14.7667 30.75 14.6999C30.0657 14.6003 29.375 14.5505 28.6834 14.5503Z" fill="#31A8FF"/>
</g>
<defs>
<clipPath id="clip0_378_158">
<rect width="40" height="40" fill="white"/>
</clipPath>
</defs>
</svg>
