<svg width="40" height="40" viewBox="0 0 40 40" fill="none" xmlns="http://www.w3.org/2000/svg">
<path d="M33.3332 6.66675L29.9998 30.8334L19.9998 34.1667L9.99984 30.8334L6.6665 6.66675H33.3332Z" stroke="black" stroke-width="2" stroke-linecap="round" stroke-linejoin="round"/>
<path d="M12.5 13.3335H17.5V26.6668L14.1667 25.0002M27.5 13.3335H23.3333C23.1123 13.3335 22.9004 13.4213 22.7441 13.5776C22.5878 13.7339 22.5 13.9458 22.5 14.1668V19.1668C22.5 19.3878 22.5878 19.5998 22.7441 19.7561C22.9004 19.9124 23.1123 20.0002 23.3333 20.0002H25.705C25.8243 20.0002 25.9422 20.0258 26.0507 20.0753C26.1592 20.1248 26.2559 20.197 26.3341 20.2871C26.4123 20.3772 26.4702 20.483 26.504 20.5973C26.5378 20.7117 26.5467 20.8321 26.53 20.9502L25.8333 25.8335L22.5 26.6668" stroke="black" stroke-width="2" stroke-linecap="round" stroke-linejoin="round"/>
</svg>
