<svg width="40" height="40" viewBox="0 0 40 40" fill="none" xmlns="http://www.w3.org/2000/svg">
<g clip-path="url(#clip0_378_138)">
<mask id="mask0_378_138" style="mask-type:alpha" maskUnits="userSpaceOnUse" x="0" y="0" width="40" height="40">
<path fill-rule="evenodd" clip-rule="evenodd" d="M28.3648 39.7269C28.6831 39.851 29.0235 39.9082 29.3649 39.8951C29.7063 39.882 30.0413 39.7988 30.3492 39.6507L38.5845 35.6879C39.0086 35.4837 39.3665 35.164 39.6169 34.7654C39.8673 34.3669 40.0002 33.9057 40.0001 33.435V6.56536C40.0002 6.09461 39.8674 5.63341 39.617 5.23481C39.3665 4.83621 39.0086 4.51642 38.5845 4.31223L30.3492 0.350044C29.8838 0.12614 29.3604 0.0524202 28.8513 0.139088C28.3422 0.225755 27.8727 0.468524 27.5076 0.833794L11.742 15.2169L4.87511 10.0041C4.5653 9.76903 4.18299 9.64977 3.79447 9.667C3.40595 9.68424 3.0357 9.83689 2.74792 10.0985L0.545425 12.1019C0.373783 12.258 0.236616 12.4482 0.142698 12.6604C0.048779 12.8726 0.000176965 13.102 4.82362e-07 13.334C-0.000176 13.566 0.048077 13.7955 0.141673 14.0078C0.235268 14.2201 0.372146 14.4105 0.54355 14.5669L6.49886 20L0.543862 25.4335C0.372552 25.5899 0.235756 25.7803 0.142219 25.9926C0.0486811 26.2048 0.000459458 26.4343 0.000635922 26.6662C0.000812387 26.8982 0.0493831 27.1276 0.143244 27.3397C0.237104 27.5518 0.374189 27.742 0.545737 27.8982L2.74824 29.9016C3.03598 30.1632 3.4062 30.316 3.79472 30.3332C4.18325 30.3505 4.56558 30.2313 4.87542 29.9963L11.7423 24.7838L27.5079 39.1666C27.7519 39.4105 28.0435 39.6013 28.3648 39.7269ZM30.006 10.9197L18.0439 20L30.0064 29.0807L30.006 10.9197Z" fill="white"/>
</mask>
<g mask="url(#mask0_378_138)">
<path d="M38.5846 4.31871L30.3427 0.349962C29.8772 0.125771 29.3535 0.0518952 28.8442 0.138569C28.3348 0.225242 27.865 0.468175 27.4999 0.833712L0.519267 25.4334C0.347829 25.5897 0.210918 25.7801 0.117297 25.9924C0.0236767 26.2047 -0.0245901 26.4342 -0.0244136 26.6662C-0.0242371 26.8982 0.0243788 27.1276 0.118322 27.3397C0.212265 27.5518 0.349466 27.742 0.521142 27.8981L2.72489 29.9015C3.01272 30.1635 3.38319 30.3164 3.77199 30.3337C4.16079 30.351 4.54338 30.2316 4.85333 29.9962L37.3443 5.34778C38.4343 4.5209 39.9999 5.2984 39.9999 6.66652V6.5709C39.9999 6.1003 39.8671 5.63924 39.6167 5.24077C39.3663 4.8423 39.0086 4.5229 38.5846 4.31871Z" fill="#0065A9"/>
<g filter="url(#filter0_d_378_138)">
<path d="M38.5846 35.6815L30.3427 39.6496C29.8773 39.8739 29.3536 39.9479 28.8443 39.8613C28.3349 39.7747 27.8651 39.5319 27.4999 39.1665L0.519267 14.5665C0.347829 14.4102 0.210918 14.2198 0.117297 14.0075C0.0236767 13.7952 -0.0245901 13.5657 -0.0244136 13.3337C-0.0242371 13.1017 0.0243788 12.8723 0.118322 12.6602C0.212265 12.448 0.349466 12.2579 0.521142 12.1018L2.72489 10.0984C3.01272 9.83639 3.38319 9.68349 3.77199 9.6662C4.16079 9.6489 4.54338 9.7683 4.85333 10.0037L37.3443 34.6518C38.4343 35.479 39.9999 34.7015 39.9999 33.3334V33.429C39.9999 33.8996 39.8671 34.3606 39.6167 34.7591C39.3663 35.1576 39.0086 35.4773 38.5846 35.6815Z" fill="#007ACC"/>
</g>
<g filter="url(#filter1_d_378_138)">
<path d="M30.3431 39.6506C29.8775 39.8743 29.3538 39.9479 28.8445 39.8612C28.3352 39.7745 27.8654 39.5317 27.5 39.1665C28.4225 40.089 30 39.4356 30 38.1309V1.86869C30 0.563998 28.4225 -0.0894396 27.5 0.833373C27.8654 0.468119 28.3352 0.225363 28.8445 0.13865C29.3538 0.0519371 29.8775 0.125548 30.3431 0.34931L38.5834 4.31244C39.0078 4.51649 39.3658 4.83622 39.6165 5.23483C39.8671 5.63344 40 6.09472 40 6.56556V33.4349C40 33.9058 39.8671 34.3671 39.6165 34.7657C39.3658 35.1643 39.0078 35.484 38.5834 35.6881L30.3431 39.6506Z" fill="#1F9CF0"/>
</g>
<path opacity="0.25" fill-rule="evenodd" clip-rule="evenodd" d="M28.3405 39.7269C28.6588 39.8509 28.9992 39.9082 29.3405 39.8951C29.6818 39.8819 30.0168 39.7988 30.3246 39.6507L38.5599 35.6879C38.9841 35.4837 39.342 35.1639 39.5924 34.7653C39.8428 34.3667 39.9756 33.9055 39.9755 33.4347V6.56536C39.9756 6.09461 39.8428 5.63341 39.5924 5.23481C39.342 4.83621 38.9841 4.51642 38.5599 4.31223L30.3246 0.350044C29.8593 0.12614 29.3358 0.0524202 28.8267 0.139088C28.3177 0.225755 27.8481 0.468524 27.483 0.833794L11.7174 15.2169L4.85055 10.0044C4.54073 9.76934 4.15843 9.65008 3.7699 9.66732C3.38138 9.68455 3.01114 9.8372 2.72336 10.0988L0.520859 12.1022C0.349261 12.2584 0.212132 12.4486 0.118241 12.6608C0.0243499 12.8729 -0.0242371 13.1023 -0.0244136 13.3343C-0.0245901 13.5663 0.0236479 13.7958 0.117216 14.0081C0.210784 14.2204 0.347623 14.4108 0.518984 14.5672L6.4743 20L0.519296 25.4332C0.347893 25.5895 0.211015 25.78 0.11742 25.9923C0.0238239 26.2046 -0.0244291 26.4341 -0.0242526 26.6661C-0.0240761 26.8981 0.024526 27.1275 0.118445 27.3397C0.212363 27.5518 0.34953 27.7421 0.521171 27.8982L2.72367 29.9016C3.01141 30.1632 3.38164 30.316 3.77016 30.3332C4.15868 30.3505 4.54101 30.2313 4.85086 29.9963L11.718 24.7835L27.4837 39.1666C27.7276 39.4105 28.0193 39.6013 28.3405 39.7269ZM29.9818 10.9194L18.0193 20L29.9818 29.0804V10.9194Z" fill="url(#paint0_linear_378_138)"/>
</g>
</g>
<defs>
<filter id="filter0_d_378_138" x="-2.62879" y="7.06018" width="45.2332" height="35.4407" filterUnits="userSpaceOnUse" color-interpolation-filters="sRGB">
<feFlood flood-opacity="0" result="BackgroundImageFix"/>
<feColorMatrix in="SourceAlpha" type="matrix" values="0 0 0 0 0 0 0 0 0 0 0 0 0 0 0 0 0 0 127 0" result="hardAlpha"/>
<feOffset/>
<feGaussianBlur stdDeviation="1.30219"/>
<feColorMatrix type="matrix" values="0 0 0 0 0 0 0 0 0 0 0 0 0 0 0 0 0 0 0.25 0"/>
<feBlend mode="overlay" in2="BackgroundImageFix" result="effect1_dropShadow_378_138"/>
<feBlend mode="normal" in="SourceGraphic" in2="effect1_dropShadow_378_138" result="shape"/>
</filter>
<filter id="filter1_d_378_138" x="24.8956" y="-2.5011" width="17.7087" height="45.002" filterUnits="userSpaceOnUse" color-interpolation-filters="sRGB">
<feFlood flood-opacity="0" result="BackgroundImageFix"/>
<feColorMatrix in="SourceAlpha" type="matrix" values="0 0 0 0 0 0 0 0 0 0 0 0 0 0 0 0 0 0 127 0" result="hardAlpha"/>
<feOffset/>
<feGaussianBlur stdDeviation="1.30219"/>
<feColorMatrix type="matrix" values="0 0 0 0 0 0 0 0 0 0 0 0 0 0 0 0 0 0 0.25 0"/>
<feBlend mode="overlay" in2="BackgroundImageFix" result="effect1_dropShadow_378_138"/>
<feBlend mode="normal" in="SourceGraphic" in2="effect1_dropShadow_378_138" result="shape"/>
</filter>
<linearGradient id="paint0_linear_378_138" x1="19.9755" y1="0.103169" x2="19.9755" y2="39.8969" gradientUnits="userSpaceOnUse">
<stop stop-color="white"/>
<stop offset="1" stop-color="white" stop-opacity="0"/>
</linearGradient>
<clipPath id="clip0_378_138">
<rect width="40" height="40" fill="white"/>
</clipPath>
</defs>
</svg>
