<svg width="40" height="40" viewBox="0 0 40 40" fill="none" xmlns="http://www.w3.org/2000/svg">
<path d="M24.4624 3.45003L13.9124 13.125L19.2199 17.1775L24.9999 12.7675V5.00003C25.0002 4.43761 24.8108 3.89153 24.4624 3.45003ZM24.9999 24.7325L6.45991 10.585C6.20842 10.3937 5.89779 10.2967 5.58213 10.3109C5.26646 10.325 4.96577 10.4495 4.73241 10.6625L2.94241 12.3C2.80256 12.4277 2.69086 12.5831 2.61443 12.7564C2.53801 12.9296 2.49854 13.1169 2.49854 13.3063C2.49854 13.4956 2.53801 13.6829 2.61443 13.8562C2.69086 14.0294 2.80256 14.1849 2.94241 14.3125L24.4624 34.05C24.8108 33.6085 25.0002 33.0624 24.9999 32.5V24.7325ZM26.8824 2.59253C27.2774 3.30753 27.4999 4.12753 27.4999 5.00003V32.5C27.4999 33.375 27.2749 34.195 26.8824 34.9075C26.9761 34.8771 27.0679 34.8412 27.1574 34.8L33.8499 31.5625C34.1945 31.3941 34.485 31.1324 34.6883 30.8071C34.8916 30.4819 34.9996 30.1061 34.9999 29.7225V7.77753C34.9999 6.99253 34.5524 6.27753 33.8499 5.93753L27.1574 2.70253C27.068 2.66046 26.9762 2.62373 26.8824 2.59253ZM2.94241 23.1875L5.92991 20.445L10.0249 24.2L6.46241 26.9175C6.21092 27.1088 5.90029 27.2058 5.58463 27.1917C5.26896 27.1775 4.96827 27.0531 4.73491 26.84L2.94491 25.2025C2.80574 25.0745 2.69465 24.9189 2.61866 24.7457C2.54267 24.5725 2.50344 24.3854 2.50344 24.1963C2.50344 24.0071 2.54267 23.8201 2.61866 23.6469C2.69465 23.4737 2.80574 23.3181 2.94491 23.19" fill="black"/>
</svg>
